<svg width="24" height="24" viewBox="0 0 24 24" fill="none" xmlns="http://www.w3.org/2000/svg">
<path d="M4.80039 4.80005C3.47664 4.80005 2.40039 5.8763 2.40039 7.20005V16.8C2.40039 18.1238 3.47664 19.2 4.80039 19.2H19.2004C20.5241 19.2 21.6004 18.1238 21.6004 16.8V7.20005C21.6004 5.8763 20.5241 4.80005 19.2004 4.80005H4.80039ZM12.0004 7.80005C14.3216 7.80005 16.2004 9.6788 16.2004 12C16.2004 14.3213 14.3216 16.2 12.0004 16.2C9.67914 16.2 7.80039 14.3213 7.80039 12C7.80039 9.6788 9.67914 7.80005 12.0004 7.80005ZM4.80039 9.30005V7.50005C4.80039 7.33505 4.93539 7.20005 5.10039 7.20005H6.90039C7.06539 7.20005 7.20414 7.33505 7.18164 7.50005C7.04664 8.58755 6.18414 9.4463 5.10039 9.5813C4.93539 9.60005 4.80039 9.46505 4.80039 9.30005ZM4.80039 14.7C4.80039 14.535 4.93539 14.3963 5.10039 14.4188C6.18789 14.5538 7.04664 15.4163 7.18164 16.5C7.20039 16.665 7.06539 16.8 6.90039 16.8H5.10039C4.93539 16.8 4.80039 16.665 4.80039 16.5V14.7ZM18.9004 9.5813C17.8129 9.4463 16.9541 8.5838 16.8191 7.50005C16.8004 7.33505 16.9354 7.20005 17.1004 7.20005H18.9004C19.0654 7.20005 19.2004 7.33505 19.2004 7.50005V9.30005C19.2004 9.46505 19.0654 9.6038 18.9004 9.5813ZM19.2004 14.7V16.5C19.2004 16.665 19.0654 16.8 18.9004 16.8H17.1004C16.9354 16.8 16.7966 16.665 16.8191 16.5C16.9541 15.4125 17.8166 14.5538 18.9004 14.4188C19.0654 14.4 19.2004 14.535 19.2004 14.7ZM11.4004 9.45005C10.9879 9.45005 10.6504 9.78755 10.6504 10.2C10.6504 10.5638 10.9091 10.8638 11.2504 10.935V12.75H11.1004C10.6879 12.75 10.3504 13.0875 10.3504 13.5C10.3504 13.9125 10.6879 14.25 11.1004 14.25H12.9004C13.3129 14.25 13.6504 13.9125 13.6504 13.5C13.6504 13.0875 13.3129 12.75 12.9004 12.75H12.7504V10.2C12.7504 9.78755 12.4129 9.45005 12.0004 9.45005H11.4004Z" fill="white"/>
</svg>
