<svg width="24" height="24" viewBox="0 0 24 24" fill="none" xmlns="http://www.w3.org/2000/svg">
<path d="M12.0004 21.6C17.3029 21.6 21.6004 17.3025 21.6004 12C21.6004 6.69753 17.3029 2.40002 12.0004 2.40002C6.69789 2.40002 2.40039 6.69753 2.40039 12C2.40039 17.3025 6.69789 21.6 12.0004 21.6ZM15.1654 10.3763L12.1654 15.1763C12.0079 15.4275 11.7379 15.585 11.4416 15.6C11.1454 15.615 10.8604 15.48 10.6841 15.24L8.88414 12.84C8.58414 12.4425 8.66664 11.88 9.06414 11.58C9.46164 11.28 10.0241 11.3625 10.3241 11.76L11.3366 13.11L13.6391 9.42377C13.9016 9.00377 14.4566 8.87252 14.8804 9.13877C15.3041 9.40502 15.4316 9.95627 15.1654 10.38V10.3763Z" fill="#2BDA6E"/>
</svg>
