<svg width="13" height="17" viewBox="0 0 13 17" fill="none" xmlns="http://www.w3.org/2000/svg">
<path d="M12.2015 8.33132L4.76395 16.3001C4.68514 16.3842 4.5811 16.4404 4.46754 16.4602C4.35399 16.48 4.23707 16.4623 4.13444 16.4098C4.03181 16.3574 3.94903 16.2729 3.8986 16.1693C3.84816 16.0656 3.83281 15.9484 3.85485 15.8352L4.82837 10.9657L1.00138 9.52863C0.919187 9.49789 0.845893 9.44726 0.788042 9.38128C0.730191 9.3153 0.689586 9.23601 0.669855 9.15051C0.650123 9.065 0.651879 8.97594 0.674966 8.89128C0.698053 8.80662 0.741751 8.729 0.802158 8.66535L8.23966 0.696598C8.31847 0.612485 8.42251 0.556289 8.53607 0.53649C8.64962 0.516692 8.76654 0.534365 8.86917 0.586843C8.9718 0.63932 9.05458 0.723755 9.10502 0.827406C9.15545 0.931057 9.1708 1.0483 9.14876 1.16144L8.17259 6.03632L11.9996 7.47136C12.0812 7.50231 12.1539 7.55288 12.2113 7.6186C12.2687 7.68432 12.309 7.76317 12.3287 7.84818C12.3484 7.93318 12.3468 8.02173 12.3242 8.106C12.3015 8.19026 12.2585 8.26765 12.1988 8.33132H12.2015Z" fill="#092413"/>
</svg>
