<svg width="24" height="24" viewBox="0 0 24 24" fill="none" xmlns="http://www.w3.org/2000/svg">
<path d="M21.6004 3.5999C21.6004 7.65365 18.7279 11.0362 14.9104 11.8274C14.6141 9.64865 13.6354 7.6874 12.1916 6.16865C13.6954 3.8999 16.2716 2.3999 19.2004 2.3999H20.4004C21.0641 2.3999 21.6004 2.93615 21.6004 3.5999ZM2.40039 5.9999C2.40039 5.33615 2.93664 4.7999 3.60039 4.7999H4.80039C9.43914 4.7999 13.2004 8.56115 13.2004 13.1999V20.3999C13.2004 21.0637 12.6641 21.5999 12.0004 21.5999C11.3366 21.5999 10.8004 21.0637 10.8004 20.3999V14.3999C6.16164 14.3999 2.40039 10.6387 2.40039 5.9999Z" fill="white"/>
</svg>
