<svg width="24" height="24" viewBox="0 0 24 24" fill="none" xmlns="http://www.w3.org/2000/svg">
<path d="M4.48914 9.88865L5.64789 11.0474C5.87289 11.2724 6.17664 11.3999 6.49539 11.3999H7.30164C7.62039 11.3999 7.92414 11.5274 8.14914 11.7524L9.24789 12.8512C9.47289 13.0762 9.60039 13.3799 9.60039 13.6987V15.1049C9.60039 15.4237 9.72789 15.7274 9.95289 15.9524L10.4516 16.4512C10.6766 16.6762 10.8041 16.9799 10.8041 17.2987V17.9999C10.8041 18.6637 11.3404 19.1999 12.0041 19.1999C12.6679 19.1999 13.2041 18.6637 13.2041 17.9999V17.8987C13.2041 17.5799 13.3316 17.2762 13.5566 17.0512L15.2554 15.3524C15.4804 15.1274 15.6079 14.8237 15.6079 14.5049V13.2037C15.6079 12.5399 15.0716 12.0037 14.4079 12.0037H11.3066C10.9879 12.0037 10.6841 11.8762 10.4591 11.6512L9.85914 11.0512C9.70164 10.8937 9.61164 10.6762 9.61164 10.4512C9.61164 9.9824 9.99039 9.60365 10.4591 9.60365H11.7604C12.2291 9.60365 12.6079 9.2249 12.6079 8.75615C12.6079 8.53115 12.5179 8.31365 12.3604 8.15615L11.6216 7.4174C11.4754 7.2749 11.4004 7.09115 11.4004 6.8999C11.4004 6.70865 11.4754 6.5249 11.6141 6.38615L12.2629 5.7374C12.4804 5.5199 12.6041 5.22365 12.6041 4.91615C12.6041 4.64615 12.5141 4.4024 12.3641 4.2074C12.2441 4.20365 12.1241 4.1999 12.0041 4.1999C8.42664 4.1999 5.41539 6.6074 4.49289 9.88865H4.48914ZM19.8004 11.9999C19.8004 10.7024 19.4854 9.4799 18.9229 8.4074C18.6829 8.44115 18.4466 8.55365 18.2516 8.74865L17.7491 9.25115C17.5241 9.47615 17.3966 9.7799 17.3966 10.0987V11.3999C17.3966 12.0637 17.9329 12.5999 18.5966 12.5999H19.5004C19.5941 12.5999 19.6879 12.5887 19.7741 12.5699C19.7891 12.3824 19.7929 12.1912 19.7929 11.9999H19.8004ZM2.40039 11.9999C2.40039 6.6974 6.69789 2.3999 12.0004 2.3999C17.3029 2.3999 21.6004 6.6974 21.6004 11.9999C21.6004 17.3024 17.3029 21.5999 12.0004 21.5999C6.69789 21.5999 2.40039 17.3024 2.40039 11.9999Z" fill="white"/>
</svg>
